0
SECTION
2
HEADER
9
$INSUNITS
70
4
9
$ACADVER
1
AC1014
9
$HANDSEED
5
FFFF
0
ENDSEC
0
SECTION
2
TABLES
0
TABLE
2
VPORT
5
8
100
AcDbSymbolTable
0
ENDTAB
0
TABLE
2
LTYPE
5
5
100
AcDbSymbolTable
0
LTYPE
5
14
100
AcDbSymbolTableRecord
100
AcDbLinetypeTableRecord
2
BYBLOCK
70
0
0
LTYPE
5
15
100
AcDbSymbolTableRecord
100
AcDbLinetypeTableRecord
2
BYLAYER
70
0
0
ENDTAB
0
TABLE
2
LAYER
5
2
100
AcDbSymbolTable
70
2
0
LAYER
5
50
100
AcDbSymbolTableRecord
100
AcDbLayerTableRecord
2
0
70
0
6
CONTINUOUS
0
ENDTAB
0
TABLE
2
STYLE
5
3
100
AcDbSymbolTable
70
1
0
STYLE
5
11
100
AcDbSymbolTableRecord
100
AcDbTextStyleTableRecord
2
STANDARD
70
0
0
ENDTAB
0
TABLE
2
VIEW
5
6
100
AcDbSymbolTable
70
0
0
ENDTAB
0
TABLE
2
UCS
5
7
100
AcDbSymbolTable
70
0
0
ENDTAB
0
TABLE
2
APPID
5
9
100
AcDbSymbolTable
70
2
0
APPID
5
12
100
AcDbSymbolTableRecord
100
AcDbRegAppTableRecord
2
ACAD
70
0
0
ENDTAB
0
TABLE
2
DIMSTYLE
5
A
100
AcDbSymbolTable
70
1
0
ENDTAB
0
TABLE
2
BLOCK_RECORD
5
1
100
AcDbSymbolTable
70
1
0
BLOCK_RECORD
5
1F
100
AcDbSymbolTableRecord
100
AcDbBlockTableRecord
2
*MODEL_SPACE
0
BLOCK_RECORD
5
1B
100
AcDbSymbolTableRecord
100
AcDbBlockTableRecord
2
*PAPER_SPACE
0
ENDTAB
0
ENDSEC
0
SECTION
2
BLOCKS
0
BLOCK
5
20
100
AcDbEntity
100
AcDbBlockBegin
2
*MODEL_SPACE
0
ENDBLK
5
21
100
AcDbEntity
100
AcDbBlockEnd
0
BLOCK
5
1C
100
AcDbEntity
100
AcDbBlockBegin
2
*PAPER_SPACE
0
ENDBLK
5
1D
100
AcDbEntity
100
AcDbBlockEnd
0
ENDSEC
0
SECTION
2
ENTITIES
0
CIRCLE
5
100
100
AcDbEntity
8
0
100
AcDbCircle
10
263.99999998509873
20
-646.4131931430785
30
0
40
2.5
210
0
220
-0
230
1
0
CIRCLE
5
101
100
AcDbEntity
8
0
100
AcDbCircle
10
78.999999985098697
20
-646.4131931430785
30
0
40
2.5
210
0
220
-0
230
1
0
CIRCLE
5
102
100
AcDbEntity
8
0
100
AcDbCircle
10
-263.99999998509912
20
-646.41319314307839
30
0
40
2.5
210
0
220
-0
230
1
0
CIRCLE
5
103
100
AcDbEntity
8
0
100
AcDbCircle
10
-78.999999985099123
20
-646.4131931430785
30
0
40
2.5
210
0
220
-0
230
1
0
CIRCLE
5
104
100
AcDbEntity
8
0
100
AcDbCircle
10
334.99999999999977
20
-355.9131931430781
30
0
40
2.5
210
0
220
-0
230
1
0
CIRCLE
5
105
100
AcDbEntity
8
0
100
AcDbCircle
10
334.99999999999977
20
-155.91319314307808
30
0
40
2.5
210
0
220
-0
230
1
0
CIRCLE
5
106
100
AcDbEntity
8
0
100
AcDbCircle
10
334.99999999999977
20
-255.9131931430781
30
0
40
2.5
210
0
220
-0
230
1
0
CIRCLE
5
107
100
AcDbEntity
8
0
100
AcDbCircle
10
334.99999999999977
20
-455.9131931430781
30
0
40
2.5
210
0
220
-0
230
1
0
CIRCLE
5
108
100
AcDbEntity
8
0
100
AcDbCircle
10
334.99999999999977
20
-555.91319314307816
30
0
40
2.5
210
0
220
-0
230
1
0
CIRCLE
5
109
100
AcDbEntity
8
0
100
AcDbCircle
10
-335.00000000000023
20
-555.91319314307793
30
0
40
2.5
210
0
220
-0
230
1
0
CIRCLE
5
110
100
AcDbEntity
8
0
100
AcDbCircle
10
-335.00000000000006
20
-455.91319314307788
30
0
40
2.5
210
0
220
-0
230
1
0
CIRCLE
5
111
100
AcDbEntity
8
0
100
AcDbCircle
10
-335.00000000000006
20
-355.91319314307788
30
0
40
2.5
210
0
220
-0
230
1
0
CIRCLE
5
112
100
AcDbEntity
8
0
100
AcDbCircle
10
-334.99999999999994
20
-255.91319314307788
30
0
40
2.5
210
0
220
-0
230
1
0
CIRCLE
5
113
100
AcDbEntity
8
0
100
AcDbCircle
10
-334.99999999999994
20
-155.91319314307788
30
0
40
2.5
210
0
220
-0
230
1
0
CIRCLE
5
114
100
AcDbEntity
8
0
100
AcDbCircle
10
0
20
11.586806856928344
30
0
40
2.5
210
0
220
-0
230
1
0
CIRCLE
5
115
100
AcDbEntity
8
0
100
AcDbCircle
10
240
20
11.586806856928344
30
0
40
2.5
210
0
220
-0
230
1
0
CIRCLE
5
116
100
AcDbEntity
8
0
100
AcDbCircle
10
120
20
11.586806856928344
30
0
40
2.5
210
0
220
-0
230
1
0
CIRCLE
5
117
100
AcDbEntity
8
0
100
AcDbCircle
10
-120
20
11.586806856928344
30
0
40
2.5
210
0
220
-0
230
1
0
CIRCLE
5
118
100
AcDbEntity
8
0
100
AcDbCircle
10
-240
20
11.586806856928344
30
0
40
2.5
210
0
220
-0
230
1
0
LWPOLYLINE
5
119
100
AcDbEntity
8
0
100
AcDbPolyline
90
34
70
1
43
0.0
10
-319.04873406269445
20
-65.266451766715079
10
-275.46001551815311
20
-54.115849348344085
10
-269.29734379472745
20
-47.953177624918268
10
-258.14674137635632
20
-4.3644590803769745
10
-258.14674137635632
20
23.086806856928348
10
258.14674137635643
20
23.086806856928348
10
258.14674137635643
20
-4.3644590803772587
10
269.29734379472745
20
-47.953177624918624
10
275.46001551815328
20
-54.115849348344227
10
319.04873406269456
20
-65.266451766715363
10
346.49999999999977
20
-65.266451766715363
10
346.49999999999977
20
-594.41319312817689
10
318.99999998509878
20
-594.413193128177
10
318.99999998509867
20
-630.913193128177
10
283.49999998509867
20
-630.913193128177
10
283.49999998509873
20
-657.91319314307873
10
59.00000001490163
20
-657.91319314307873
10
59.00000001490163
20
-600.8075125291225
10
54.221555053750379
20
-589.41655900864021
10
40.791353951714555
20
-579.14640522473042
10
40.383513298644829
20
-578.91319312817677
10
-1.3835132986434928
20
-578.91319312817677
10
-1.7913539517135391
20
-579.14640522473042
10
-15.221555053749398
20
-589.41655900864009
10
-20.00000001490065
20
-600.80751252912262
10
-20.000000014900667
20
-630.91319314307816
10
-51.563516618269574
20
-630.91319314307816
10
-51.563516618269567
20
-657.91319314307873
10
-283.50000000000011
20
-657.91319314307873
10
-283.50000000000011
20
-630.91319314307896
10
-319.49999998509901
20
-630.91319314307896
10
-319.49999998509901
20
-594.91319312817677
10
-346.50000000000023
20
-594.91319312817677
10
-346.50000000000023
20
-65.266451766715079
0
ENDSEC
0
SECTION
2
OBJECTS
0
DICTIONARY
5
C
100
AcDbDictionary
3
ACAD_GROUP
350
D
3
ACAD_MLINESTYLE
350
17
0
DICTIONARY
5
D
100
AcDbDictionary
0
DICTIONARY
5
1A
330
C
100
AcDbDictionary
0
DICTIONARY
5
17
100
AcDbDictionary
0
ENDSEC
0
EOF
